PathFileType	4	(X/Y/Z)	output.trc
DataRate	CameraRate	NumFrames	NumMarkers	Units	OrigDataRate	OrigDataStartFrame	OrigNumFrames
100	100	12	23	m	100	2110	2812
Frame#	Time	C7			T8			EL			EM			US			RS			AA			Fore_Clus_1			Fore_Clus_2			Fore_Clus_3			Fore_Clus_4			Hum_Clus_1			Hum_Clus_2			Hum_Clus_3			Hum_Clus_4			Thor_Clus_1			Thor_Clus_2			Thor_Clus_3			Thor_Clus_4			IJ			PX			GH			Thor_Clus_5		
		X1	Y1	Z1	X2	Y2	Z2	X3	Y3	Z3	X4	Y4	Z4	X5	Y5	Z5	X6	Y6	Z6	X7	Y7	Z7	X8	Y8	Z8	X9	Y9	Z9	X10	Y10	Z10	X11	Y11	Z11	X12	Y12	Z12	X13	Y13	Z13	X14	Y14	Z14	X15	Y15	Z15	X16	Y16	Z16	X17	Y17	Z17	X18	Y18	Z18	X19	Y19	Z19	X20	Y20	Z20	X21	Y21	Z21	X22	Y22	Z22	X23	Y23	Z23
2109	21.090000	-0.083881	1.437397	-0.097991	-0.122795	1.255614	-0.134579	-0.214347	1.093521	0.158439	-0.205193	1.074332	0.096991	-0.149601	0.856616	0.242018	-0.115867	0.896287	0.254888	-0.198990	1.353656	0.056469	-0.191633	0.924618	0.251152	-0.172916	0.879363	0.275485	-0.150755	0.893372	0.285692	-0.156395	0.947548	0.267606	-0.195153	1.190248	0.173867	-0.244870	1.191243	0.139757	-0.248727	1.253667	0.127779	-0.196027	1.261199	0.152961	0.054395	1.319667	-0.013853	0.028790	1.268195	0.047868	0.023857	1.317823	0.018694	0.072687	1.271030	0.000606	-0.022330	1.349509	-0.032797	0.013204	1.172039	0.005444	-0.160849	1.340751	0.026590	0.020534	1.289620	0.041309
2110	21.100000	-0.083449	1.437510	-0.096905	-0.122005	1.255844	-0.134437	-0.216889	1.091023	0.153026	-0.207343	1.073078	0.091263	-0.155344	0.851848	0.232028	-0.121358	0.890903	0.246067	-0.199370	1.353065	0.056560	-0.196977	0.919971	0.241869	-0.178999	0.874042	0.265528	-0.157278	0.888056	0.276574	-0.161889	0.942299	0.259530	-0.197292	1.187194	0.170847	-0.246495	1.188764	0.135851	-0.250059	1.251873	0.125568	-0.197565	1.258657	0.151388	0.054631	1.320009	-0.012033	0.028102	1.267628	0.048970	0.023567	1.317389	0.019801	0.072586	1.270745	0.001961	-0.022199	1.349413	-0.031711	0.013262	1.171821	0.006028	-0.160961	1.340662	0.026846	0.019954	1.289057	0.042450
2111	21.110000	-0.082993	1.437666	-0.095832	-0.121221	1.256125	-0.134299	-0.219306	1.088752	0.147678	-0.209196	1.072000	0.085671	-0.160840	0.847556	0.222303	-0.126680	0.886012	0.237522	-0.199779	1.352561	0.056609	-0.202271	0.915714	0.232841	-0.184921	0.869147	0.255616	-0.163376	0.882717	0.267365	-0.167475	0.937444	0.251440	-0.199320	1.184236	0.167468	-0.248355	1.187334	0.132433	-0.251481	1.250234	0.123205	-0.199097	1.256234	0.149645	0.054200	1.319431	-0.011064	0.027693	1.267088	0.050148	0.023347	1.317109	0.021210	0.072484	1.270558	0.003354	-0.022083	1.349348	-0.030616	0.013252	1.171630	0.006643	-0.161018	1.340606	0.027091	0.019732	1.288613	0.043644
2112	21.120000	-0.082544	1.437853	-0.094749	-0.120478	1.256447	-0.134130	-0.221627	1.086694	0.142394	-0.210766	1.071084	0.080215	-0.166112	0.843696	0.212870	-0.131841	0.881561	0.229274	-0.200209	1.352132	0.056670	-0.207239	0.911831	0.223781	-0.190573	0.864710	0.245893	-0.169157	0.877850	0.258299	-0.172715	0.932907	0.243666	-0.201620	1.181963	0.164364	-0.250134	1.185570	0.128596	-0.252951	1.248681	0.120513	-0.201014	1.254043	0.147804	0.054280	1.319310	-0.009301	0.027395	1.266688	0.051218	0.023069	1.316871	0.022540	0.072403	1.270409	0.004762	-0.021994	1.349309	-0.029504	0.013181	1.171463	0.007291	-0.160973	1.340584	0.027372	0.019963	1.288855	0.045210
2113	21.130000	-0.082063	1.438080	-0.093681	-0.119746	1.256818	-0.133954	-0.223845	1.084855	0.137209	-0.212081	1.070325	0.074933	-0.171130	0.840263	0.203733	-0.136819	0.877558	0.221319	-0.200640	1.351803	0.056706	-0.211903	0.908475	0.214985	-0.196000	0.860702	0.236418	-0.174788	0.873556	0.249538	-0.177661	0.928914	0.235776	-0.203900	1.179663	0.161095	-0.251905	1.184135	0.124695	-0.254351	1.247483	0.117475	-0.202896	1.252049	0.145948	0.054147	1.319146	-0.007839	0.026974	1.266463	0.052329	0.022868	1.316697	0.023769	0.072294	1.270311	0.006185	-0.021905	1.349301	-0.028394	0.013056	1.171322	0.007965	-0.160883	1.340593	0.027652	0.019777	1.288698	0.046534
2114	21.140000	-0.081577	1.438333	-0.092615	-0.119049	1.257221	-0.133748	-0.225987	1.083224	0.132129	-0.213175	1.069714	0.069830	-0.175917	0.837215	0.194908	-0.141624	0.873953	0.213661	-0.201067	1.351553	0.056755	-0.216330	0.905499	0.206626	-0.201087	0.857266	0.227405	-0.179995	0.869753	0.241079	-0.182151	0.925346	0.228194	-0.206236	1.177622	0.157836	-0.253717	1.182749	0.120760	-0.256007	1.246254	0.114366	-0.205029	1.250303	0.143925	0.054255	1.319450	-0.006304	0.026643	1.266282	0.053483	0.022577	1.316512	0.025097	0.072227	1.270337	0.007609	-0.021826	1.349314	-0.027280	0.012886	1.171203	0.008664	-0.160722	1.340635	0.027972	0.018957	1.288165	0.047370
2115	21.150000	-0.081080	1.438606	-0.091560	-0.118380	1.257647	-0.133515	-0.228069	1.081797	0.127172	-0.214093	1.069247	0.064923	-0.180476	0.834527	0.186400	-0.146251	0.870723	0.206296	-0.201480	1.351378	0.056816	-0.220505	0.902950	0.198645	-0.205841	0.854254	0.218805	-0.184892	0.866343	0.233060	-0.186457	0.922094	0.221223	-0.208691	1.175787	0.154708	-0.255474	1.181575	0.116780	-0.257622	1.245121	0.111264	-0.207145	1.248636	0.141891	0.054535	1.319821	-0.004603	0.026270	1.266036	0.054598	0.022409	1.316430	0.026294	0.072225	1.270291	0.009077	-0.021749	1.349346	-0.026172	0.012682	1.171102	0.009382	-0.160508	1.340709	0.028332	0.018043	1.287550	0.048124
2116	21.160000	-0.080555	1.438894	-0.090533	-0.117722	1.258091	-0.133273	-0.230104	1.080575	0.122366	-0.214890	1.068918	0.060234	-0.184804	0.832181	0.178208	-0.150694	0.867858	0.199210	-0.201871	1.351277	0.056865	-0.224481	0.900731	0.191169	-0.210510	0.851617	0.210802	-0.189587	0.863346	0.225487	-0.190663	0.919352	0.214305	-0.211212	1.174085	0.151349	-0.257327	1.180524	0.112936	-0.259130	1.244196	0.108240	-0.209435	1.247490	0.140013	0.054038	1.319254	-0.003570	0.025734	1.266276	0.055905	0.022142	1.316218	0.027428	0.072189	1.270287	0.010479	-0.021660	1.349391	-0.025082	0.012453	1.171015	0.010112	-0.160279	1.340811	0.028712	0.017779	1.287529	0.049131
2117	21.170000	-0.080041	1.439174	-0.089521	-0.117097	1.258524	-0.133000	-0.232123	1.079544	0.117702	-0.215611	1.068724	0.055750	-0.188942	0.830129	0.170340	-0.154972	0.865297	0.192400	-0.202241	1.351212	0.056939	-0.228204	0.898682	0.183860	-0.214771	0.849238	0.202958	-0.194014	0.860586	0.217978	-0.194502	0.916744	0.207709	-0.213823	1.172825	0.148392	-0.259359	1.179587	0.108987	-0.260617	1.243399	0.105144	-0.211619	1.246050	0.138021	0.054027	1.319249	-0.002304	0.025441	1.266048	0.056981	0.024280	1.319122	0.030902	0.071712	1.269760	0.011746	-0.021577	1.349436	-0.024005	0.012212	1.170932	0.010853	-0.160005	1.340942	0.029162	0.017588	1.287369	0.050379
2118	21.180000	-0.079502	1.439447	-0.088553	-0.116469	1.258948	-0.132733	-0.234135	1.078707	0.113213	-0.216324	1.068658	0.051491	-0.192878	0.828367	0.162785	-0.159074	0.863051	0.185845	-0.202585	1.351189	0.056985	-0.232002	0.896968	0.176852	-0.219057	0.847225	0.195505	-0.198424	0.858205	0.210938	-0.198438	0.914431	0.201224	-0.216375	1.171509	0.145501	-0.260962	1.178947	0.105296	-0.262087	1.242745	0.102185	-0.213634	1.244728	0.136092	0.053979	1.319269	-0.000937	0.025012	1.265966	0.058074	0.023090	1.317757	0.030909	0.071542	1.269786	0.013018	-0.021477	1.349480	-0.022962	0.011968	1.170852	0.011594	-0.159748	1.341097	0.029627	0.017150	1.287214	0.051425
2119	21.190000	-0.078968	1.439692	-0.087623	-0.115851	1.259339	-0.132459	-0.236166	1.078049	0.108889	-0.217073	1.068719	0.047438	-0.196654	0.826853	0.155545	-0.163023	0.861068	0.179537	-0.202908	1.351172	0.057026	-0.235620	0.895378	0.170010	-0.223194	0.845191	0.188080	-0.202743	0.855963	0.203986	-0.202329	0.912393	0.195092	-0.218925	1.170339	0.142729	-0.262764	1.178488	0.101951	-0.263463	1.242320	0.099313	-0.215803	1.243920	0.134353	0.053918	1.319168	0.000429	0.024624	1.265670	0.059126	0.021339	1.315830	0.030721	0.071484	1.269669	0.014353	-0.021374	1.349509	-0.021949	0.011732	1.170765	0.012332	-0.159489	1.341274	0.030137	0.017029	1.287576	0.052474
2120	21.200000	-0.078437	1.439902	-0.086739	-0.115231	1.259685	-0.132193	-0.238229	1.077564	0.104735	-0.217908	1.068900	0.043581	-0.200293	0.825565	0.148612	-0.166827	0.859329	0.173459	-0.203214	1.351146	0.057044	-0.239218	0.893916	0.163395	-0.227210	0.843476	0.181014	-0.206916	0.853952	0.197378	-0.206229	0.910417	0.189215	-0.221434	1.169353	0.139975	-0.264131	1.178166	0.098063	-0.264939	1.242007	0.096655	-0.217863	1.243016	0.132532	0.053897	1.319033	0.001613	0.024802	1.265714	0.060113	0.020976	1.315694	0.031733	0.071301	1.269495	0.015601	-0.021266	1.349516	-0.020973	0.011510	1.170665	0.013061	-0.159245	1.341469	0.030675	0.016646	1.287001	0.053413
